<svg id="Flat" height="60" viewBox="0 0 512 512" width="60" xmlns="http://www.w3.org/2000/svg"><path d="m104 128a40 40 0 0 0 -80 0v312a40 40 0 0 0 40 40h424v-352z" fill="#3a98e4"/><path d="m104 128v312a40 40 0 0 0 -80 0v-312a40 40 0 0 1 80 0z" fill="#2e79b5"/><path d="m488 208v-32h-64v-48h-32v48h-176v-48h-32v88h-80v32h80v72l-80 24v32l80-16v120h32v-120h32l96 120h48v-136h96v-32h-88l48-104zm-128 240-72-88h72zm0-120h-144v-120h192z" fill="#a4d4f4"/><circle cx="312" cy="264" fill="#a4d4f4" r="32"/><path d="m296 64v176l16 24 16-24v-176z" fill="#e8edf1"/><circle cx="312" cy="64" fill="#e74444" r="32"/></svg>