<svg id="Capa_1" enable-background="new 0 0 512 512" height="46" viewBox="0 0 512 512" width="46" xmlns="http://www.w3.org/2000/svg"><g><g><path clip-rule="evenodd" d="m406.761 480.796v-39.034h-84.898v39.034c0 11.226 9.071 20.467 20.239 20.722h44.447c11.17-.255 20.212-9.496 20.212-20.722z" fill="#736572" fill-rule="evenodd"/></g><g><path clip-rule="evenodd" d="m125.337 480.796.057-42.096h-84.899l-.057 42.096c-.028 11.226 9.043 20.467 20.239 20.722h44.419c11.17-.255 20.212-9.496 20.241-20.722z" fill="#736572" fill-rule="evenodd"/></g><g><path clip-rule="evenodd" d="m125.337 480.796.057-42.096c-28.29 0-56.608 0-84.898 0l-.057 30.218h63.355v11.878c-.028 11.226-9.071 20.467-20.239 20.722h21.543c11.168-.255 20.21-9.496 20.239-20.722z" fill="#615260" fill-rule="evenodd"/></g><g><path clip-rule="evenodd" d="m406.761 480.796v-39.034h-84.898v27.157h63.355v11.878c0 11.226-9.043 20.467-20.239 20.722h21.572c11.168-.256 20.21-9.497 20.21-20.723z" fill="#615260" fill-rule="evenodd"/></g><g><path clip-rule="evenodd" d="m54.187 310.599 25.597-54.824h-45.071c-14.854 0-27.043 12.133-27.213 27.043v.368.34c.17 14.939 12.359 27.072 27.213 27.072h19.474z" fill="#e2d8ec" fill-rule="evenodd"/></g><g><path clip-rule="evenodd" d="m54.187 310.599 7.937-16.98h-19.503c-14.854 0-27.014-12.133-27.213-27.043v-.369-.34c.028-.709.057-1.389.113-2.069-4.876 4.876-7.937 11.622-8.022 19.021v.368.34c.17 14.939 12.359 27.072 27.213 27.072z" fill="#d5c6e4" fill-rule="evenodd"/></g><g><path clip-rule="evenodd" d="m224.039 210.561 65.991-14.202-17.858-39.459c-1.077-2.126-1.956-4.337-4.337-4.337h-87.846c-3.883 0-3.742.624-5.443 3.94l-18.028 39.856z" fill="#9dc6fb" fill-rule="evenodd"/></g><g><path clip-rule="evenodd" d="m439.048 283.187c0-15.081-12.246-27.412-27.213-27.412h-45.071l25.597 54.824h19.474c14.967 0 27.213-12.331 27.213-27.412z" fill="#e2d8ec" fill-rule="evenodd"/></g><g><path clip-rule="evenodd" d="m411.835 310.599c14.967 0 27.213-12.331 27.213-27.412 0-7.569-3.09-14.429-8.022-19.39.057.794.085 1.587.085 2.41 0 15.081-12.246 27.412-27.213 27.412h-19.474l7.937 16.98z" fill="#d5c6e4" fill-rule="evenodd"/></g><g><path clip-rule="evenodd" d="m423.684 434.052v-63.782c0-13.55.567-12.813-5.187-25.059l-16.158-34.612-25.597-54.824-14.712-31.551c-12.331-26.42-14.542-27.865-38.183-27.865h-100.573-100.602c-23.613 0-25.824 1.446-38.154 27.865l-14.74 31.551-25.598 54.824-16.158 34.612c-5.726 12.274-5.159 11.509-5.159 25.059v63.781c0 9.185 7.512 16.725 16.696 16.725h.879 84.898 196.527 84.898.227c9.184.001 16.696-7.54 16.696-16.724z" fill="#ffe077" fill-rule="evenodd"/></g><g><path clip-rule="evenodd" d="m137.979 407.207c19.729-.425 19.304-22.168 5.556-30.757l-29.197-18.142c-13.606-8.448-43.54-14.854-43.54 17.264v13.352c0 10.035 8.192 18.284 18.17 18.284h49.011z" fill="#f9f3f1" fill-rule="evenodd"/></g><g><path clip-rule="evenodd" d="m89.988 310.599h266.571l-32.117-68.827c-.539-1.162-1.162-2.495-1.814-3.912h-198.737c-.652 1.417-1.247 2.75-1.786 3.912z" fill="#9dc6fb" fill-rule="evenodd"/></g><g><path clip-rule="evenodd" d="m376.742 255.775-14.712-31.551c-12.331-26.42-14.542-27.865-38.183-27.865h-33.817-20.58.085c23.102.028 25.37 1.644 37.616 27.865l6.35 13.635h9.128c.652 1.417 1.276 2.75 1.814 3.912l32.117 68.827h-9.099l16.158 34.612c2.239 4.762 3.515 7.569 4.252 10.007 4.706 3.572 7.88 9.922 7.88 20.353v13.352c0 5.783-2.721 10.97-6.945 14.344v30.785c0 9.185-7.512 16.725-16.696 16.725h54.652.227c9.184 0 16.696-7.54 16.696-16.725v-63.781c0-13.55.567-12.813-5.187-25.059l-16.158-34.612z" fill="#ffd05b" fill-rule="evenodd"/></g><g><path clip-rule="evenodd" d="m375.75 375.571c0-32.118-29.934-25.711-43.54-17.264l-29.197 18.142c-13.776 8.589-14.173 30.332 5.556 30.757h49.011c9.978 0 18.17-8.249 18.17-18.284z" fill="#f9f3f1" fill-rule="evenodd"/></g><g><path clip-rule="evenodd" d="m356.559 310.599-32.117-68.827c-.539-1.162-1.162-2.495-1.814-3.912h-32.202c.652 1.417 1.247 2.75 1.786 3.912l32.145 68.827z" fill="#80b4fb" fill-rule="evenodd"/></g><g><path clip-rule="evenodd" d="m137.979 407.207c14.967-.312 18.34-12.898 13.096-22.706-2.353 3.572-6.69 6.066-13.238 6.208h-49.011c-9.213 0-16.866-7.002-18.028-15.96v.822 13.352c0 10.035 8.192 18.284 18.17 18.284z" fill="#e2d8ec" fill-rule="evenodd"/></g><g><path clip-rule="evenodd" d="m368.805 403.267c4.224-3.373 6.945-8.561 6.945-14.344v-13.352c0-1.276-.057-2.495-.142-3.657v.51c0 10.035-8.192 18.284-18.17 18.284h-49.011c-6.406-.142-10.687-2.523-13.068-5.981-5.074 9.78-1.644 22.168 13.209 22.479h49.011c4.224.001 8.136-1.473 11.226-3.939z" fill="#e2d8ec" fill-rule="evenodd"/></g><g><path clip-rule="evenodd" d="m380.512 10.486c68.485 0 123.988 55.504 123.988 123.963 0 68.487-55.503 123.991-123.988 123.991-19.417 0-37.814-4.479-54.17-12.444l-62.476 13.465 15.024-54.002c-14.088-20.098-22.365-44.59-22.365-71.01-.001-68.459 55.53-123.963 123.987-123.963z" fill="#f9f3f1" fill-rule="evenodd"/></g><g><path clip-rule="evenodd" d="m313.529 88.951c-8.135 3.912-10.261 16.441-4.706 27.979 5.556 11.537 16.668 17.717 24.832 13.777 8.135-3.912 10.261-16.47 4.706-27.979-5.556-11.537-16.668-17.717-24.832-13.777z" fill="#ffe077" fill-rule="evenodd"/></g><g><path clip-rule="evenodd" d="m380.881 58.025c-9.071 0-16.413 10.375-16.413 23.188s7.342 23.188 16.413 23.188c9.043 0 16.384-10.375 16.384-23.188s-7.342-23.188-16.384-23.188z" fill="#ffe077" fill-rule="evenodd"/></g><g><path clip-rule="evenodd" d="m423.401 102.728c-5.556 11.509-3.458 24.067 4.706 27.979 8.164 3.94 19.276-2.239 24.832-13.777 5.556-11.537 3.43-24.067-4.734-27.979-8.137-3.94-19.277 2.24-24.804 13.777z" fill="#ffe077" fill-rule="evenodd"/></g><g><path clip-rule="evenodd" d="m338.361 102.728c-5.556-11.537-16.668-17.717-24.832-13.777-1.644.794-3.033 1.928-4.195 3.345 6.435 1.191 13.096 6.633 16.98 14.741 4.422 9.185 3.997 19.021-.51 24.634 2.721.482 5.414.198 7.852-.964 8.135-3.912 10.261-16.47 4.705-27.979z" fill="#ffd05b" fill-rule="evenodd"/></g><g><path clip-rule="evenodd" d="m377.451 58.535c11.31 8.277 10.545 39.686-2.409 44.335 1.814.992 3.77 1.531 5.839 1.531 9.043 0 16.384-10.375 16.384-23.188s-7.342-23.188-16.384-23.188c-1.191 0-2.325.198-3.43.51z" fill="#ffd05b" fill-rule="evenodd"/></g><g><path clip-rule="evenodd" d="m444.717 87.874c2.778 5.755 2.551 14.032-1.219 21.856-4.791 9.95-13.72 15.931-21.317 14.854 1.304 2.721 3.317 4.876 5.924 6.123 8.164 3.94 19.276-2.239 24.832-13.777 5.556-11.537 3.43-24.067-4.734-27.979-1.105-.566-2.295-.907-3.486-1.077z" fill="#ffd05b" fill-rule="evenodd"/></g><g><path clip-rule="evenodd" d="m406.223 255.775c56.155-11.849 98.277-61.655 98.277-121.327 0-64.065-48.614-116.791-110.948-123.282 48.047 17.065 82.46 62.931 82.46 116.848 0 60.947-43.994 111.632-101.934 122.035-7.143 1.276-14.513 1.956-22.054 1.956-4.394 0-8.731-.227-13.011-.68 9.099 3.232 18.709 5.443 28.687 6.463 3.402.34 6.831.567 10.29.624.85.028 1.672.028 2.523.028 8.815 0 17.432-.907 25.71-2.665z" fill="#e2d8ec" fill-rule="evenodd"/></g><g><path clip-rule="evenodd" d="m380.541 134.534c-4.422 0-8.844 2.013-13.21 6.095l-18.822 17.405c-11.991 11.112-12.557 36.285 10.318 36.285 9.326 0 10.488-5.386 21.713-5.386s12.387 5.386 21.713 5.386c22.876 0 22.309-25.172 10.29-36.285l-18.794-17.405c-4.393-4.082-8.786-6.095-13.208-6.095z" fill="#ffe077" fill-rule="evenodd"/></g><g><path clip-rule="evenodd" d="m380.541 134.534c-4.422 0-8.844 2.013-13.21 6.095l-2.069 1.899c3.628.595 7.257 2.58 10.885 5.925l18.822 17.405c7.71 7.144 10.687 20.07 5.783 28.404.482.057.964.057 1.502.057 22.876 0 22.309-25.172 10.29-36.285l-18.794-17.405c-4.394-4.082-8.787-6.095-13.209-6.095z" fill="#ffd05b" fill-rule="evenodd"/></g><g><path d="m308.407 414.704c.054.001.107.002.161.002h49.012c14.154 0 25.67-11.566 25.67-25.783v-13.352c0-16.987-7.43-24.687-13.663-28.153-12.34-6.865-30.077-2.472-41.335 4.52l-29.207 18.147c-10.206 6.363-15.508 18.648-12.606 29.212 2.582 9.407 10.795 15.167 21.968 15.407zm-1.436-31.884 29.195-18.14c7.803-4.845 19.71-7.727 26.13-4.152 3.951 2.197 5.954 7.259 5.954 15.044v13.352c0 5.845-4.886 10.783-10.67 10.783h-48.925c-4.376-.11-6.984-1.584-7.752-4.381-1.006-3.662.993-9.342 6.068-12.506z"/><path d="m118.294 351.936c-11.256-6.987-28.993-11.383-41.333-4.518-6.233 3.467-13.663 11.166-13.663 28.153v13.352c0 14.217 11.516 25.783 25.67 25.783h49.012c.054 0 .107-.001.161-.002 11.163-.24 19.37-5.993 21.955-15.39 2.905-10.562-2.388-22.854-12.603-29.235zm27.339 43.4c-.768 2.79-3.371 4.26-7.74 4.37h-48.925c-5.784 0-10.67-4.938-10.67-10.783v-13.352c0-7.785 2.003-12.847 5.954-15.044 1.992-1.108 4.512-1.595 7.274-1.595 6.139 0 13.473 2.405 18.854 5.745l29.182 18.132c5.083 3.178 7.079 8.864 6.071 12.527z"/><path d="m269.523 357.797c0-4.143-3.357-7.5-7.5-7.5h-75.997c-4.143 0-7.5 3.357-7.5 7.5s3.357 7.5 7.5 7.5h75.997c4.143 0 7.5-3.357 7.5-7.5z"/><path d="m203.318 397.273h41.442c4.143 0 7.5-3.357 7.5-7.5s-3.357-7.5-7.5-7.5h-41.442c-4.143 0-7.5 3.357-7.5 7.5s3.358 7.5 7.5 7.5z"/><path d="m380.881 111.901c13.393 0 23.884-13.479 23.884-30.688s-10.491-30.688-23.884-30.688c-13.394 0-23.885 13.479-23.885 30.688 0 17.208 10.491 30.688 23.885 30.688zm0-46.376c4.193 0 8.884 6.709 8.884 15.688s-4.69 15.688-8.884 15.688-8.885-6.709-8.885-15.688 4.691-15.688 8.885-15.688z"/><path d="m461.971 94.382c-1.943-5.537-5.676-9.864-10.511-12.187-4.825-2.333-10.534-2.548-16.075-.611-7.766 2.717-14.599 9.242-18.738 17.884-4.176 8.649-5.011 18.06-2.292 25.817 1.941 5.54 5.675 9.868 10.491 12.176 2.66 1.284 5.562 1.922 8.552 1.922 3.882-.001 7.911-1.075 11.743-3.203 6.031-3.349 11.2-9.029 14.555-15.996 4.164-8.651 4.993-18.055 2.275-25.802zm-15.791 19.294c-1.992 4.138-5.024 7.56-8.32 9.39-1.446.803-4.214 1.988-6.512.878-1.559-.747-2.403-2.381-2.838-3.62-1.368-3.905-.738-9.397 1.654-14.354 2.367-4.94 6.265-8.858 10.173-10.226.719-.251 1.627-.478 2.565-.478.682 0 1.38.119 2.032.436.01.005.019.009.028.014 1.568.752 2.418 2.392 2.854 3.635 1.37 3.897.743 9.387-1.636 14.325z"/><path d="m347.402 125.264c2.714-7.761 1.881-17.163-2.284-25.789-3.354-6.967-8.523-12.647-14.555-15.996-6.781-3.767-14.18-4.231-20.294-1.282-6.099 2.938-10.335 9.001-11.623 16.638-1.147 6.806.067 14.388 3.42 21.35 3.354 6.967 8.523 12.647 14.555 15.996 3.833 2.129 7.863 3.203 11.745 3.203 2.986 0 5.885-.636 8.539-1.917 4.829-2.323 8.558-6.656 10.497-12.203zm-14.159-4.951c-.436 1.245-1.281 2.887-2.848 3.64-2.282 1.101-5.047-.082-6.493-.887-3.296-1.83-6.328-5.252-8.321-9.391-1.989-4.13-2.771-8.63-2.144-12.347.275-1.63 1.075-4.527 3.342-5.618.004-.001.007-.003.01-.004.661-.319 1.362-.446 2.061-.446 1.712 0 3.405.763 4.433 1.333 3.296 1.83 6.329 5.252 8.325 9.396 2.376 4.924 3.003 10.413 1.635 14.324z"/><path d="m512 134.452c0-72.49-58.99-131.47-131.49-131.47s-131.49 58.98-131.49 131.47c0 3.559.155 7.096.435 10.611h-69.467c-6.796 0-9.429 2.622-11.68 7.15-.131.264-.274.552-.436.867-.057.109-.11.22-.16.332l-16.034 35.447h-29.007c-26.849 0-31.47 3.31-44.95 32.192l-12.711 27.225h-30.297c-19.141 0-34.713 15.661-34.713 34.912 0 18.483 14.358 33.648 32.444 34.828l-11.218 24.024c-5.589 11.981-5.918 13.38-5.87 24.934.004.997.009 67.078.009 67.078 0 11.059 7.442 20.404 17.574 23.295v23.449c0 15.562 12.66 28.222 28.222 28.222h43.455c15.562 0 28.222-12.66 28.222-28.222v-22.52h73.174c4.143 0 7.5-3.357 7.5-7.5s-3.357-7.5-7.5-7.5h-80.674-84.9-.878c-5.07 0-9.195-4.138-9.195-9.225 0 0-.005-66.124-.009-67.141-.037-8.881-.037-8.881 4.463-18.527l56.495-120.987c5.809-12.445 8.986-18.422 12.458-20.943 3.075-2.233 8.091-2.594 18.9-2.594h33.803c.012 0 .025.002.037.002.009 0 .018-.002.027-.002h112.32c.615.985 1.227 1.971 1.87 2.943l-6.553 23.557h-140.285c-2.931 0-5.592 1.706-6.815 4.369-.326.71-.639 1.406-.938 2.071-.294.654-.573 1.276-.828 1.827l-32.117 68.799c-1.084 2.323-.907 5.039.47 7.201s3.763 3.472 6.326 3.472h116.022c4.143 0 7.5-3.357 7.5-7.5s-3.357-7.5-7.5-7.5h-104.244l26.954-57.739h131.283l-3.364 12.093c-.7 2.53-.03 5.24 1.77 7.15 1.43 1.52 3.41 2.36 5.46 2.36.52 0 1.05-.06 1.58-.17l56.678-12.218 22.653 48.525h-104.159c-4.143 0-7.5 3.357-7.5 7.5s3.357 7.5 7.5 7.5h115.938c2.563 0 4.949-1.31 6.326-3.472s1.554-4.878.47-7.201l-22.159-47.467c10.325 3.245 21 5.182 31.937 5.78l22.293 47.772c.01.025.023.049.034.073l16.248 34.816c4.521 9.621 4.521 9.621 4.484 18.524-.004 1.013-.009 67.127-.009 67.127 0 5.087-4.125 9.225-9.195 9.225h-.228-84.897-81.241c-4.143 0-7.5 3.357-7.5 7.5s3.357 7.5 7.5 7.5h73.741v22.52c0 15.562 12.66 28.222 28.222 28.222h43.455c15.561 0 28.221-12.66 28.221-28.222v-23.639c9.799-3.099 16.923-12.284 16.923-23.105 0 0 .005-66.07.009-67.064.048-11.597-.283-12.997-5.9-24.948l-11.209-24.019c18.102-1.172 32.467-16.34 32.467-34.828 0-11.44-5.5-21.62-13.98-28 46.678-20.211 79.428-66.721 79.428-120.741zm-394.163 323.825v22.52c0 7.29-5.932 13.222-13.222 13.222h-43.455c-7.29 0-13.222-5.932-13.222-13.222v-22.52zm-83.124-155.178c-10.87 0-19.713-8.932-19.713-19.911s8.843-19.912 19.713-19.912h23.292l-18.596 39.823zm364.548 177.697c0 7.29-5.931 13.222-13.221 13.222h-43.455c-7.29 0-13.222-5.932-13.222-13.222v-22.52h69.897v22.52zm-231.12-291.936 13.026-28.797h70.365c1.962 9.938 5.066 19.587 9.267 28.797zm243.689 74.412c10.88 0 19.72 8.94 19.72 19.92s-8.84 19.91-19.72 19.91h-4.709l-17.492-37.482c5.878-.406 11.656-1.191 17.301-2.348zm-6.51-15c-8 1.75-16.3 2.67-24.81 2.67-3.08 0-6.14-.12-9.18-.35-14.54-1.12-28.53-4.93-41.7-11.34-1.03-.5-2.16-.76-3.29-.76-.53 0-1.06.06-1.58.17l-50.34 10.85 11.7-42.04c.6-2.16.2-4.48-1.09-6.32-13.74-19.6-21.01-42.67-21.01-66.7 0-64.22 52.26-116.47 116.49-116.47s116.49 52.25 116.49 116.47c0 55.72-39.33 102.43-91.68 113.82z"/><path d="m398.854 135.134c-5.784-5.375-11.945-8.1-18.313-8.1-6.406 0-12.574 2.73-18.302 8.087l-18.828 17.411c-9.305 8.623-13.076 23.401-8.772 34.375 3.716 9.477 12.532 14.911 24.188 14.911 6.131 0 9.914-1.788 12.954-3.226 2.653-1.254 4.57-2.16 8.76-2.16 4.188 0 6.105.906 8.759 2.16 3.04 1.438 6.823 3.226 12.954 3.226 11.661 0 20.479-5.438 24.19-14.919 4.298-10.979.511-25.757-8.805-34.369zm13.623 46.297c-.522 1.333-2.109 5.388-10.223 5.388-2.764 0-4.106-.635-6.544-1.787-3.213-1.519-7.613-3.599-15.169-3.599s-11.957 2.08-15.17 3.6c-2.438 1.151-3.78 1.786-6.544 1.786-8.111 0-9.701-4.055-10.224-5.387-2.067-5.271.224-13.468 4.997-17.892l18.854-17.434c2.889-2.702 5.609-4.072 8.087-4.072 2.458 0 5.185 1.375 8.113 4.097l18.798 17.409c4.787 4.426 7.088 12.619 5.025 17.891z"/></g></g></svg>