<?xml version="1.0" encoding="UTF-8"?>
<svg id="Layer_1" xmlns="http://www.w3.org/2000/svg" version="1.1" viewBox="0 0 512 512">
  <!-- Generator: Adobe Illustrator 30.1.0, SVG Export Plug-In . SVG Version: 2.1.1 Build 136)  -->
  <defs>
    <style>
      .st0 {
        fill: #fcaf3e;
      }

      .st1 {
        fill: #fff;
      }
    </style>
  </defs>
  <g>
    <path class="st0" d="M413.9,377.2h-189.9c-10.9,0-21.7-1.6-32.1-4.7-4.7-1.4-7.4-6.4-6-11.1,1.4-4.7,6.4-7.4,11.1-6,8.7,2.6,17.8,3.9,27,3.9h189.9c14.5,0,26.2-11.8,26.2-26.2s-11.8-26.2-26.2-26.2h-63.5c-31.5,0-57.2-25.7-57.2-57.2s-17.6-39.3-39.3-39.3h-22c-21.9,0-42.2-12.8-51.6-32.6l-48.7-102.4c-4.3-9.1-13.6-15-23.7-15h-1.4c-8.2,0-15.8,3.7-20.8,10.2-5,6.5-6.7,14.8-4.6,22.7l52,196.1c3.4,12.9,9.4,24.6,17.7,34.9,3.1,3.8,2.5,9.4-1.3,12.5-3.8,3.1-9.4,2.5-12.5-1.3-9.9-12.3-17-26.3-21-41.6L63.9,97.8c-3.5-13.3-.7-27.2,7.7-38.2,8.4-10.9,21.1-17.2,34.9-17.2h1.4c16.9,0,32.5,9.9,39.8,25.1l48.7,102.4c6.5,13.6,20.4,22.4,35.5,22.4h22c31.5,0,57.2,25.7,57.2,57.2s17.6,39.3,39.3,39.3h63.5c24.3,0,44.1,19.8,44.1,44.1s-19.8,44.1-44.1,44.1Z"/>
    <path class="st0" d="M413.9,379.8h-189.9c-11.2,0-22.2-1.6-32.9-4.8-3-.9-5.4-2.9-6.8-5.6s-1.8-5.8-.9-8.8c1.8-6.1,8.3-9.6,14.4-7.7,8.5,2.5,17.3,3.8,26.2,3.8h189.9c13,0,23.6-10.6,23.6-23.6s-10.6-23.6-23.6-23.6h-63.5c-33,0-59.8-26.8-59.8-59.8s-16.5-36.7-36.7-36.7h-22c-23,0-44.2-13.4-54-34.1l-48.7-102.4c-3.9-8.2-12.3-13.5-21.3-13.5h-1.4c-7.4,0-14.2,3.4-18.7,9.2-4.5,5.9-6,13.3-4.1,20.4l52,196.1c3.3,12.5,9.1,23.9,17.2,34,1.9,2.4,2.8,5.4,2.5,8.5s-1.8,5.8-4.2,7.8c-5,4-12.2,3.2-16.2-1.7-10.1-12.6-17.4-26.9-21.5-42.5L61.4,98.5c-3.7-14.1-.8-28.9,8.1-40.4,8.9-11.6,22.4-18.2,37-18.2h1.4c17.9,0,34.5,10.5,42.2,26.6l48.7,102.4c6.1,12.7,19.1,21,33.2,21h22c33,0,59.8,26.8,59.8,59.8s16.5,36.7,36.7,36.7h63.5c25.7,0,46.7,20.9,46.7,46.7s-20.9,46.7-46.7,46.7ZM194.5,357.6c-2.7,0-5.2,1.8-6,4.5-1,3.3.9,6.8,4.2,7.8,10.2,3,20.7,4.6,31.4,4.6h189.9c22.9,0,41.4-18.6,41.4-41.4s-18.6-41.4-41.4-41.4h-63.5c-23.1,0-42-18.8-42-42s-24.5-54.6-54.6-54.6h-22c-16.1,0-31-9.4-37.9-23.9l-48.7-102.4c-6.8-14.4-21.5-23.6-37.4-23.6h-1.4c-13,0-24.9,5.9-32.8,16.2-7.9,10.3-10.5,23.4-7.2,35.9l52,196.1c4,14.9,10.9,28.6,20.5,40.6,2.2,2.7,6.1,3.1,8.9.9,1.3-1.1,2.1-2.6,2.3-4.2.2-1.7-.3-3.3-1.4-4.6-8.6-10.6-14.7-22.7-18.2-35.9l-52-196.1c-2.3-8.7-.5-17.8,5-25,5.5-7.2,13.8-11.3,22.9-11.3h1.4c11.1,0,21.3,6.5,26.1,16.5l48.7,102.4c9,18.9,28.3,31.1,49.3,31.1h22c23.1,0,42,18.8,42,42s24.5,54.6,54.6,54.6h63.5c15.9,0,28.9,12.9,28.9,28.9s-12.9,28.9-28.9,28.9h-189.9c-9.4,0-18.8-1.4-27.7-4.1-.6-.2-1.2-.3-1.8-.3Z"/>
  </g>
  <g>
    <path d="M500.5,482.1c-4.9,0-8.9-4-8.9-8.9v-35.3c0-12.1-9.8-21.9-21.9-21.9h-252.2c-19.5,0-38.6-3.8-56.6-11.2-4.6-1.9-6.7-7.1-4.9-11.6,1.9-4.6,7.1-6.7,11.6-4.9,15.8,6.5,32.6,9.8,49.8,9.8h252.2c21.9,0,39.8,17.8,39.8,39.8v35.3c0,4.9-4,8.9-8.9,8.9Z"/>
    <path d="M500.5,484.7c-6.4,0-11.5-5.2-11.5-11.5v-35.3c0-10.6-8.7-19.3-19.3-19.3h-252.2c-19.9,0-39.3-3.8-57.6-11.4-5.9-2.4-8.7-9.2-6.3-15.1,2.4-5.9,9.2-8.7,15.1-6.3,15.5,6.4,31.9,9.6,48.8,9.6h252.2c23.4,0,42.4,19,42.4,42.4v35.3c0,6.4-5.2,11.5-11.5,11.5ZM164.3,390.3c-2.5,0-4.8,1.5-5.8,3.9-1.3,3.2.2,6.9,3.4,8.2,17.7,7.3,36.4,11,55.6,11h252.2c13.5,0,24.5,11,24.5,24.5v35.3c0,3.5,2.8,6.3,6.3,6.3s6.3-2.8,6.3-6.3v-35.3c0-20.5-16.7-37.1-37.1-37.1h-252.2c-17.5,0-34.6-3.4-50.8-10-.8-.3-1.6-.5-2.4-.5Z"/>
  </g>
  <g>
    <path d="M113.4,369.6c-2.4,0-4.9-1-6.6-3-15.6-17.3-27-38.4-33-60.9L2.9,41.1c-1.3-4.8,1.5-9.6,6.3-10.9,4.8-1.3,9.6,1.5,10.9,6.3l70.9,264.6c5.3,19.8,15.3,38.4,29,53.6,3.3,3.7,3,9.3-.7,12.6-1.7,1.5-3.8,2.3-6,2.3Z"/>
    <path d="M113.4,372.2c-3.3,0-6.4-1.4-8.6-3.8-15.8-17.6-27.4-39-33.6-62L.4,41.8c-.8-3-.4-6.1,1.2-8.8,1.5-2.7,4-4.6,7-5.4,6.1-1.6,12.5,2,14.1,8.2l70.9,264.6c5.2,19.4,15,37.6,28.4,52.5,4.3,4.7,3.9,12-.9,16.3-2.1,1.9-4.9,3-7.7,3ZM11.5,32.5c-.5,0-1.1,0-1.6.2-1.6.4-3,1.5-3.8,2.9s-1.1,3.2-.6,4.8l70.9,264.6c5.9,22.1,17.1,42.8,32.4,59.8,1.2,1.3,2.9,2.1,4.7,2.1s3-.6,4.2-1.6c2.6-2.3,2.8-6.3.5-8.9-14-15.5-24.2-34.4-29.6-54.7L17.6,37.2c-.8-2.8-3.3-4.7-6.1-4.7Z"/>
  </g>
  <g>
    <path d="M94.3,440c-2.3,0-4.6-.9-6.3-2.6-3.5-3.5-3.5-9.1,0-12.6l140.1-140.1c3.5-3.5,9.1-3.5,12.6,0,3.5,3.5,3.5,9.1,0,12.6l-140.1,140.1c-1.7,1.7-4,2.6-6.3,2.6Z"/>
    <path d="M94.3,442.7c-3.1,0-6-1.2-8.2-3.4-2.2-2.2-3.4-5.1-3.4-8.2s1.2-6,3.4-8.2l140.1-140.1c4.5-4.5,11.8-4.5,16.3,0,2.2,2.2,3.4,5.1,3.4,8.2s-1.2,6-3.4,8.2l-140.1,140.1c-2.2,2.2-5.1,3.4-8.2,3.4ZM234.4,284.8c-1.6,0-3.2.6-4.5,1.8l-140.1,140.1c-1.2,1.2-1.8,2.8-1.8,4.5s.7,3.3,1.8,4.5c1.2,1.2,2.8,1.8,4.5,1.8s3.3-.7,4.5-1.8l140.1-140.1c1.2-1.2,1.8-2.8,1.8-4.5s-.7-3.3-1.8-4.5c-1.2-1.2-2.8-1.8-4.5-1.8Z"/>
  </g>
  <g>
    <path d="M69.9,415.6c-2.3,0-4.6-.9-6.3-2.6-3.5-3.5-3.5-9.1,0-12.6l140.1-140.1c3.5-3.5,9.1-3.5,12.6,0,3.5,3.5,3.5,9.1,0,12.6l-140.1,140.1c-1.7,1.7-4,2.6-6.3,2.6Z"/>
    <path d="M69.9,418.2c-3.1,0-6-1.2-8.2-3.4-2.2-2.2-3.4-5.1-3.4-8.2s1.2-6,3.4-8.2l140.1-140.1c4.5-4.5,11.8-4.5,16.3,0,2.2,2.2,3.4,5.1,3.4,8.2s-1.2,6-3.4,8.2l-140.1,140.1c-2.2,2.2-5.1,3.4-8.2,3.4ZM209.9,260.3c-1.6,0-3.2.6-4.5,1.8l-140.1,140.1c-1.2,1.2-1.8,2.8-1.8,4.5s.7,3.3,1.8,4.5c1.2,1.2,2.8,1.8,4.5,1.8s3.3-.7,4.5-1.8l140.1-140.1c1.2-1.2,1.8-2.8,1.8-4.5s-.7-3.3-1.8-4.5c-1.2-1.2-2.8-1.8-4.5-1.8Z"/>
  </g>
  <g>
    <path d="M293.8,200.9c-2.2,0-4.4-.8-6.1-2.4-3.6-3.4-3.8-9-.4-12.6l37.7-40.4c0,0,.1-.1.2-.2,2.3-2.4,2.5-6.1.5-8.7-1.7-2.2-4-2.5-5.2-2.5-1.2,0-3.4.4-5.1,2.6-.1.1-.2.3-.4.4l-7.1,8.2c-3.2,3.7-8.9,4.1-12.6.9-3.7-3.2-4.1-8.9-.9-12.6l6.9-8c4.6-5.9,11.5-9.3,18.9-9.4,0,0,.2,0,.3,0,7.4,0,14.4,3.3,19,9.2,7.7,9.6,7,23.5-1.6,32.3l-37.6,40.3c-1.8,1.9-4.1,2.8-6.5,2.8Z"/>
    <path d="M293.8,203.5c-2.9,0-5.7-1.1-7.9-3.1-4.6-4.3-4.9-11.7-.6-16.3l38-40.6c1.4-1.4,1.5-3.7.3-5.2-1-1.2-2.2-1.5-3.1-1.5-.9,0-2.1.3-3.1,1.5-.1.2-.3.4-.5.6l-7.1,8.2c-4.2,4.8-11.5,5.3-16.3,1.2-4.8-4.2-5.3-11.5-1.2-16.3l6.9-7.9c5.1-6.5,12.7-10.2,20.9-10.3h.3c8.2,0,15.9,3.7,21.1,10.1,8.5,10.6,7.7,26-1.8,35.8l-37.6,40.2c-2.2,2.3-5.2,3.7-8.4,3.7ZM320.5,131.6c1.7,0,4.7.5,7.1,3.4,2.9,3.6,2.6,8.9-.6,12.2h-.1c0,.1-37.7,40.5-37.7,40.5-1.1,1.2-1.7,2.8-1.7,4.5,0,1.7.8,3.2,2,4.4,1.2,1.1,2.7,1.7,4.3,1.7s3.4-.7,4.6-2l37.6-40.3c7.7-7.9,8.3-20.3,1.5-28.9-4.2-5.2-10.3-8.2-17-8.2h-.3c-6.6,0-12.8,3.1-16.9,8.4h0c0,.1-6.9,8.1-6.9,8.1-2.3,2.6-2,6.6.6,8.9,2.6,2.3,6.6,2,8.9-.6l7.1-8.2c0,0,.2-.2.2-.3,2.4-3.1,5.5-3.6,7.2-3.6,0,0,0,0,.1,0Z"/>
  </g>
  <g>
    <path d="M257,186.2c-2.2,0-4.3-.8-6-2.4-3.6-3.3-3.8-9-.5-12.6l22.8-24.7v-19.6c0-4.9,4-8.9,8.9-8.9s8.9,4,8.9,8.9v23.1c0,2.2-.8,4.4-2.4,6l-25.2,27.3c-1.8,1.9-4.2,2.9-6.6,2.9Z"/>
    <path d="M257,188.9c-2.9,0-5.7-1.1-7.8-3.1-2.3-2.1-3.6-4.9-3.7-8-.1-3.1,1-6,3.1-8.3l22.1-24v-18.6c0-6.4,5.2-11.5,11.5-11.5s11.5,5.2,11.5,11.5v23.1c0,2.9-1.1,5.7-3.1,7.8l-25.2,27.3c-2.2,2.4-5.3,3.7-8.5,3.7ZM282.2,120.6c-3.5,0-6.3,2.8-6.3,6.3v20.6l-23.5,25.5c-1.1,1.2-1.7,2.8-1.7,4.5s.8,3.2,2,4.4c1.2,1.1,2.7,1.7,4.3,1.7s3.4-.7,4.6-2l25.2-27.3c1.1-1.2,1.7-2.7,1.7-4.3v-23.1c0-3.5-2.8-6.3-6.3-6.3Z"/>
  </g>
  <g>
    <path class="st0" d="M210.8,171.3c-1.8,0-3.7-.6-5.3-1.7-4-2.9-4.8-8.5-1.9-12.5,6.5-8.8,9.9-19.2,9.9-30.2,0-28.1-22.8-50.9-50.9-50.9s-8.9-4-8.9-8.9,4-8.9,8.9-8.9c37.9,0,68.7,30.8,68.7,68.7s-4.6,28.9-13.4,40.7c-1.7,2.4-4.4,3.6-7.2,3.6Z"/>
    <path class="st1" d="M210.8,173.9c-2.5,0-4.8-.8-6.8-2.3-2.5-1.8-4.1-4.5-4.6-7.6s.3-6.1,2.1-8.6c6.1-8.3,9.4-18.2,9.4-28.6,0-26.6-21.7-48.3-48.3-48.3s-11.5-5.2-11.5-11.5,5.2-11.5,11.5-11.5c39.3,0,71.3,32,71.3,71.3s-4.8,30-13.9,42.3c-2.2,2.9-5.6,4.7-9.3,4.7ZM162.6,60.9c-3.5,0-6.3,2.8-6.3,6.3s2.8,6.3,6.3,6.3c29.5,0,53.5,24,53.5,53.5s-3.6,22.5-10.4,31.7c-2.1,2.8-1.5,6.7,1.3,8.8,1.1.8,2.4,1.2,3.7,1.2,2,0,3.9-.9,5.1-2.6,8.4-11.4,12.9-25,12.9-39.2,0-36.4-29.7-66.1-66.1-66.1Z"/>
  </g>
  <g>
    <path d="M246,311.6c-2.3,0-4.6-.9-6.3-2.6l-48.8-48.8c-3.5-3.5-3.5-9.1,0-12.6,3.5-3.5,9.1-3.5,12.6,0l48.8,48.8c3.5,3.5,3.5,9.1,0,12.6-1.7,1.7-4,2.6-6.3,2.6Z"/>
    <path d="M246,314.2c-3.1,0-6-1.2-8.2-3.4l-48.8-48.8c-2.2-2.2-3.4-5.1-3.4-8.2s1.2-6,3.4-8.2c4.5-4.5,11.8-4.5,16.3,0l48.8,48.8c2.2,2.2,3.4,5.1,3.4,8.2s-1.2,6-3.4,8.2c-2.2,2.2-5.1,3.4-8.2,3.4ZM197.2,247.6c-1.6,0-3.2.6-4.5,1.8-1.2,1.2-1.8,2.8-1.8,4.5s.7,3.3,1.8,4.5l48.8,48.8c1.2,1.2,2.8,1.8,4.5,1.8s3.3-.7,4.5-1.8c1.2-1.2,1.8-2.8,1.8-4.5s-.7-3.3-1.8-4.5l-48.8-48.8c-1.2-1.2-2.8-1.8-4.5-1.8Z"/>
  </g>
</svg>